<mxfile host="app.diagrams.net" agent="Mozilla/5.0 (Windows NT 10.0; Win64; x64) AppleWebKit/537.36 (KHTML, like Gecko) Chrome/133.0.0.0 Safari/537.36" version="26.0.15">
  <diagram id="C5RBs43oDa-KdzZeNtuy" name="Page-1">
    <mxGraphModel dx="2022" dy="1791" grid="1" gridSize="10" guides="1" tooltips="1" connect="1" arrows="1" fold="1" page="1" pageScale="1" pageWidth="827" pageHeight="1169" math="0" shadow="0">
      <root>
        <mxCell id="WIyWlLk6GJQsqaUBKTNV-0" />
        <mxCell id="WIyWlLk6GJQsqaUBKTNV-1" parent="WIyWlLk6GJQsqaUBKTNV-0" />
        <mxCell id="zkfFHV4jXpPFQw0GAbJ--0" value="User" style="swimlane;fontStyle=2;align=center;verticalAlign=top;childLayout=stackLayout;horizontal=1;startSize=30;horizontalStack=0;resizeParent=1;resizeLast=0;collapsible=1;marginBottom=0;rounded=0;shadow=0;strokeWidth=1;" parent="WIyWlLk6GJQsqaUBKTNV-1" vertex="1">
          <mxGeometry x="190" y="30" width="160" height="690" as="geometry">
            <mxRectangle x="230" y="140" width="160" height="26" as="alternateBounds" />
          </mxGeometry>
        </mxCell>
        <mxCell id="zkfFHV4jXpPFQw0GAbJ--1" value="Name" style="text;align=center;verticalAlign=top;spacingLeft=4;spacingRight=4;overflow=hidden;rotatable=0;points=[[0,0.5],[1,0.5]];portConstraint=eastwest;" parent="zkfFHV4jXpPFQw0GAbJ--0" vertex="1">
          <mxGeometry y="30" width="160" height="26" as="geometry" />
        </mxCell>
        <mxCell id="zkfFHV4jXpPFQw0GAbJ--3" value="Email adress&#xa;&#xa;" style="text;align=center;verticalAlign=top;spacingLeft=4;spacingRight=4;overflow=hidden;rotatable=0;points=[[0,0.5],[1,0.5]];portConstraint=eastwest;rounded=0;shadow=0;html=0;" parent="zkfFHV4jXpPFQw0GAbJ--0" vertex="1">
          <mxGeometry y="56" width="160" height="26" as="geometry" />
        </mxCell>
        <mxCell id="3uVxdQvslyw7Lf-tSdgO-0" value="Age" style="text;html=1;align=center;verticalAlign=middle;whiteSpace=wrap;rounded=0;" vertex="1" parent="zkfFHV4jXpPFQw0GAbJ--0">
          <mxGeometry y="82" width="160" height="30" as="geometry" />
        </mxCell>
        <mxCell id="3uVxdQvslyw7Lf-tSdgO-5" value="P&lt;span style=&quot;background-color: transparent; color: light-dark(rgb(0, 0, 0), rgb(255, 255, 255));&quot;&gt;rofile picture&lt;/span&gt;" style="text;html=1;align=center;verticalAlign=middle;whiteSpace=wrap;rounded=0;" vertex="1" parent="zkfFHV4jXpPFQw0GAbJ--0">
          <mxGeometry y="112" width="160" height="30" as="geometry" />
        </mxCell>
        <mxCell id="3uVxdQvslyw7Lf-tSdgO-10" value="From country" style="text;html=1;align=center;verticalAlign=middle;whiteSpace=wrap;rounded=0;" vertex="1" parent="zkfFHV4jXpPFQw0GAbJ--0">
          <mxGeometry y="142" width="160" height="30" as="geometry" />
        </mxCell>
        <mxCell id="3uVxdQvslyw7Lf-tSdgO-40" value="Language(s)" style="text;html=1;align=center;verticalAlign=middle;whiteSpace=wrap;rounded=0;" vertex="1" parent="zkfFHV4jXpPFQw0GAbJ--0">
          <mxGeometry y="172" width="160" height="30" as="geometry" />
        </mxCell>
        <mxCell id="3uVxdQvslyw7Lf-tSdgO-45" value="Organization(s)" style="text;html=1;align=center;verticalAlign=middle;whiteSpace=wrap;rounded=0;" vertex="1" parent="zkfFHV4jXpPFQw0GAbJ--0">
          <mxGeometry y="202" width="160" height="30" as="geometry" />
        </mxCell>
        <mxCell id="3uVxdQvslyw7Lf-tSdgO-57" value="Site rank/reputation" style="text;html=1;align=center;verticalAlign=middle;whiteSpace=wrap;rounded=0;" vertex="1" parent="zkfFHV4jXpPFQw0GAbJ--0">
          <mxGeometry y="232" width="160" height="30" as="geometry" />
        </mxCell>
        <mxCell id="zkfFHV4jXpPFQw0GAbJ--4" value="" style="line;html=1;strokeWidth=1;align=left;verticalAlign=middle;spacingTop=-1;spacingLeft=3;spacingRight=3;rotatable=0;labelPosition=right;points=[];portConstraint=eastwest;" parent="zkfFHV4jXpPFQw0GAbJ--0" vertex="1">
          <mxGeometry y="262" width="160" height="14" as="geometry" />
        </mxCell>
        <mxCell id="3uVxdQvslyw7Lf-tSdgO-2" value="Gender" style="text;html=1;align=center;verticalAlign=middle;whiteSpace=wrap;rounded=0;" vertex="1" parent="zkfFHV4jXpPFQw0GAbJ--0">
          <mxGeometry y="276" width="160" height="30" as="geometry" />
        </mxCell>
        <mxCell id="3uVxdQvslyw7Lf-tSdgO-3" value="Display stats, smoker, hobby etc" style="text;html=1;align=center;verticalAlign=middle;whiteSpace=wrap;rounded=0;" vertex="1" parent="zkfFHV4jXpPFQw0GAbJ--0">
          <mxGeometry y="306" width="160" height="30" as="geometry" />
        </mxCell>
        <mxCell id="3uVxdQvslyw7Lf-tSdgO-4" value="Optional big photo(s)" style="text;html=1;align=center;verticalAlign=middle;whiteSpace=wrap;rounded=0;" vertex="1" parent="zkfFHV4jXpPFQw0GAbJ--0">
          <mxGeometry y="336" width="160" height="30" as="geometry" />
        </mxCell>
        <mxCell id="3uVxdQvslyw7Lf-tSdgO-23" value="Rel. Status" style="text;html=1;align=center;verticalAlign=middle;whiteSpace=wrap;rounded=0;" vertex="1" parent="zkfFHV4jXpPFQw0GAbJ--0">
          <mxGeometry y="366" width="160" height="30" as="geometry" />
        </mxCell>
        <mxCell id="3uVxdQvslyw7Lf-tSdgO-7" value="" style="line;html=1;strokeWidth=1;align=left;verticalAlign=middle;spacingTop=-1;spacingLeft=3;spacingRight=3;rotatable=0;labelPosition=right;points=[];portConstraint=eastwest;" vertex="1" parent="zkfFHV4jXpPFQw0GAbJ--0">
          <mxGeometry y="396" width="160" height="14" as="geometry" />
        </mxCell>
        <mxCell id="3uVxdQvslyw7Lf-tSdgO-9" value="Resume" style="text;html=1;align=center;verticalAlign=middle;whiteSpace=wrap;rounded=0;" vertex="1" parent="zkfFHV4jXpPFQw0GAbJ--0">
          <mxGeometry y="410" width="160" height="30" as="geometry" />
        </mxCell>
        <mxCell id="3uVxdQvslyw7Lf-tSdgO-11" value="Desired post(s)" style="text;html=1;align=center;verticalAlign=middle;whiteSpace=wrap;rounded=0;" vertex="1" parent="zkfFHV4jXpPFQw0GAbJ--0">
          <mxGeometry y="440" width="160" height="30" as="geometry" />
        </mxCell>
        <mxCell id="3uVxdQvslyw7Lf-tSdgO-12" value="Display stats, years of Exp., main technologies: Java. etc" style="text;html=1;align=center;verticalAlign=middle;whiteSpace=wrap;rounded=0;" vertex="1" parent="zkfFHV4jXpPFQw0GAbJ--0">
          <mxGeometry y="470" width="160" height="30" as="geometry" />
        </mxCell>
        <mxCell id="3uVxdQvslyw7Lf-tSdgO-13" value="Min. salary" style="text;html=1;align=center;verticalAlign=middle;whiteSpace=wrap;rounded=0;" vertex="1" parent="zkfFHV4jXpPFQw0GAbJ--0">
          <mxGeometry y="500" width="160" height="30" as="geometry" />
        </mxCell>
        <mxCell id="3uVxdQvslyw7Lf-tSdgO-14" value="Looking for remote/non remote / both" style="text;html=1;align=center;verticalAlign=middle;whiteSpace=wrap;rounded=0;" vertex="1" parent="zkfFHV4jXpPFQw0GAbJ--0">
          <mxGeometry y="530" width="160" height="30" as="geometry" />
        </mxCell>
        <mxCell id="3uVxdQvslyw7Lf-tSdgO-15" value="Looking for full / part time" style="text;html=1;align=center;verticalAlign=middle;whiteSpace=wrap;rounded=0;" vertex="1" parent="zkfFHV4jXpPFQw0GAbJ--0">
          <mxGeometry y="560" width="160" height="30" as="geometry" />
        </mxCell>
        <mxCell id="3uVxdQvslyw7Lf-tSdgO-21" value="" style="line;html=1;strokeWidth=1;align=left;verticalAlign=middle;spacingTop=-1;spacingLeft=3;spacingRight=3;rotatable=0;labelPosition=right;points=[];portConstraint=eastwest;" vertex="1" parent="zkfFHV4jXpPFQw0GAbJ--0">
          <mxGeometry y="590" width="160" height="14" as="geometry" />
        </mxCell>
        <mxCell id="3uVxdQvslyw7Lf-tSdgO-22" value="Friends list" style="text;html=1;align=center;verticalAlign=middle;whiteSpace=wrap;rounded=0;" vertex="1" parent="zkfFHV4jXpPFQw0GAbJ--0">
          <mxGeometry y="604" width="160" height="30" as="geometry" />
        </mxCell>
        <mxCell id="3uVxdQvslyw7Lf-tSdgO-63" value="Block list" style="text;html=1;align=center;verticalAlign=middle;whiteSpace=wrap;rounded=0;" vertex="1" parent="zkfFHV4jXpPFQw0GAbJ--0">
          <mxGeometry y="634" width="160" height="30" as="geometry" />
        </mxCell>
        <mxCell id="3uVxdQvslyw7Lf-tSdgO-6" value="&lt;h1 style=&quot;margin-top: 0px;&quot;&gt;Dating / Social:&lt;/h1&gt;&lt;div&gt;&lt;br&gt;&lt;/div&gt;" style="text;html=1;whiteSpace=wrap;overflow=hidden;rounded=0;" vertex="1" parent="WIyWlLk6GJQsqaUBKTNV-1">
          <mxGeometry y="320" width="180" height="40" as="geometry" />
        </mxCell>
        <mxCell id="3uVxdQvslyw7Lf-tSdgO-8" value="&lt;h1 style=&quot;margin-top: 0px;&quot;&gt;Work / Job:&lt;/h1&gt;" style="text;html=1;whiteSpace=wrap;overflow=hidden;rounded=0;" vertex="1" parent="WIyWlLk6GJQsqaUBKTNV-1">
          <mxGeometry x="40" y="440" width="140" height="40" as="geometry" />
        </mxCell>
        <mxCell id="3uVxdQvslyw7Lf-tSdgO-16" value="Database" style="swimlane;fontStyle=0;childLayout=stackLayout;horizontal=1;startSize=26;fillColor=none;horizontalStack=0;resizeParent=1;resizeParentMax=0;resizeLast=0;collapsible=1;marginBottom=0;whiteSpace=wrap;html=1;" vertex="1" parent="WIyWlLk6GJQsqaUBKTNV-1">
          <mxGeometry x="510" y="50" width="140" height="250" as="geometry" />
        </mxCell>
        <mxCell id="3uVxdQvslyw7Lf-tSdgO-17" value="-Search by name" style="text;strokeColor=none;fillColor=none;align=left;verticalAlign=top;spacingLeft=4;spacingRight=4;overflow=hidden;rotatable=0;points=[[0,0.5],[1,0.5]];portConstraint=eastwest;whiteSpace=wrap;html=1;" vertex="1" parent="3uVxdQvslyw7Lf-tSdgO-16">
          <mxGeometry y="26" width="140" height="26" as="geometry" />
        </mxCell>
        <mxCell id="3uVxdQvslyw7Lf-tSdgO-18" value="-Search person by filters" style="text;strokeColor=none;fillColor=none;align=left;verticalAlign=top;spacingLeft=4;spacingRight=4;overflow=hidden;rotatable=0;points=[[0,0.5],[1,0.5]];portConstraint=eastwest;whiteSpace=wrap;html=1;" vertex="1" parent="3uVxdQvslyw7Lf-tSdgO-16">
          <mxGeometry y="52" width="140" height="38" as="geometry" />
        </mxCell>
        <mxCell id="3uVxdQvslyw7Lf-tSdgO-19" value="-Search job / offer work by filters" style="text;strokeColor=none;fillColor=none;align=left;verticalAlign=top;spacingLeft=4;spacingRight=4;overflow=hidden;rotatable=0;points=[[0,0.5],[1,0.5]];portConstraint=eastwest;whiteSpace=wrap;html=1;" vertex="1" parent="3uVxdQvslyw7Lf-tSdgO-16">
          <mxGeometry y="90" width="140" height="40" as="geometry" />
        </mxCell>
        <mxCell id="3uVxdQvslyw7Lf-tSdgO-32" value="Store users / Groups" style="text;strokeColor=none;fillColor=none;align=left;verticalAlign=top;spacingLeft=4;spacingRight=4;overflow=hidden;rotatable=0;points=[[0,0.5],[1,0.5]];portConstraint=eastwest;whiteSpace=wrap;html=1;" vertex="1" parent="3uVxdQvslyw7Lf-tSdgO-16">
          <mxGeometry y="130" width="140" height="40" as="geometry" />
        </mxCell>
        <mxCell id="3uVxdQvslyw7Lf-tSdgO-33" value="Search public&amp;nbsp;&lt;div&gt;groups&lt;/div&gt;" style="text;strokeColor=none;fillColor=none;align=left;verticalAlign=top;spacingLeft=4;spacingRight=4;overflow=hidden;rotatable=0;points=[[0,0.5],[1,0.5]];portConstraint=eastwest;whiteSpace=wrap;html=1;" vertex="1" parent="3uVxdQvslyw7Lf-tSdgO-16">
          <mxGeometry y="170" width="140" height="40" as="geometry" />
        </mxCell>
        <mxCell id="3uVxdQvslyw7Lf-tSdgO-54" value="Search job listings by filter" style="text;strokeColor=none;fillColor=none;align=left;verticalAlign=top;spacingLeft=4;spacingRight=4;overflow=hidden;rotatable=0;points=[[0,0.5],[1,0.5]];portConstraint=eastwest;whiteSpace=wrap;html=1;" vertex="1" parent="3uVxdQvslyw7Lf-tSdgO-16">
          <mxGeometry y="210" width="140" height="40" as="geometry" />
        </mxCell>
        <mxCell id="3uVxdQvslyw7Lf-tSdgO-20" value="" style="endArrow=diamondThin;endFill=1;endSize=24;html=1;rounded=0;entryX=0;entryY=0.5;entryDx=0;entryDy=0;exitX=1.005;exitY=-0.013;exitDx=0;exitDy=0;exitPerimeter=0;" edge="1" parent="WIyWlLk6GJQsqaUBKTNV-1" source="zkfFHV4jXpPFQw0GAbJ--3" target="3uVxdQvslyw7Lf-tSdgO-17">
          <mxGeometry width="160" relative="1" as="geometry">
            <mxPoint x="340" y="79" as="sourcePoint" />
            <mxPoint x="490" y="250" as="targetPoint" />
          </mxGeometry>
        </mxCell>
        <mxCell id="3uVxdQvslyw7Lf-tSdgO-24" value="Group" style="swimlane;fontStyle=0;childLayout=stackLayout;horizontal=1;startSize=26;fillColor=none;horizontalStack=0;resizeParent=1;resizeParentMax=0;resizeLast=0;collapsible=1;marginBottom=0;whiteSpace=wrap;html=1;" vertex="1" parent="WIyWlLk6GJQsqaUBKTNV-1">
          <mxGeometry x="414" y="339" width="140" height="182" as="geometry" />
        </mxCell>
        <mxCell id="3uVxdQvslyw7Lf-tSdgO-25" value="Userlist" style="text;strokeColor=none;fillColor=none;align=left;verticalAlign=top;spacingLeft=4;spacingRight=4;overflow=hidden;rotatable=0;points=[[0,0.5],[1,0.5]];portConstraint=eastwest;whiteSpace=wrap;html=1;" vertex="1" parent="3uVxdQvslyw7Lf-tSdgO-24">
          <mxGeometry y="26" width="140" height="26" as="geometry" />
        </mxCell>
        <mxCell id="3uVxdQvslyw7Lf-tSdgO-26" value="is_private" style="text;strokeColor=none;fillColor=none;align=left;verticalAlign=top;spacingLeft=4;spacingRight=4;overflow=hidden;rotatable=0;points=[[0,0.5],[1,0.5]];portConstraint=eastwest;whiteSpace=wrap;html=1;" vertex="1" parent="3uVxdQvslyw7Lf-tSdgO-24">
          <mxGeometry y="52" width="140" height="26" as="geometry" />
        </mxCell>
        <mxCell id="3uVxdQvslyw7Lf-tSdgO-27" value="Theme tags (programming, gardening, etc" style="text;strokeColor=none;fillColor=none;align=left;verticalAlign=top;spacingLeft=4;spacingRight=4;overflow=hidden;rotatable=0;points=[[0,0.5],[1,0.5]];portConstraint=eastwest;whiteSpace=wrap;html=1;" vertex="1" parent="3uVxdQvslyw7Lf-tSdgO-24">
          <mxGeometry y="78" width="140" height="52" as="geometry" />
        </mxCell>
        <mxCell id="3uVxdQvslyw7Lf-tSdgO-38" value="Invite link" style="text;strokeColor=none;fillColor=none;align=left;verticalAlign=top;spacingLeft=4;spacingRight=4;overflow=hidden;rotatable=0;points=[[0,0.5],[1,0.5]];portConstraint=eastwest;whiteSpace=wrap;html=1;" vertex="1" parent="3uVxdQvslyw7Lf-tSdgO-24">
          <mxGeometry y="130" width="140" height="26" as="geometry" />
        </mxCell>
        <mxCell id="3uVxdQvslyw7Lf-tSdgO-39" value="Administrators" style="text;strokeColor=none;fillColor=none;align=left;verticalAlign=top;spacingLeft=4;spacingRight=4;overflow=hidden;rotatable=0;points=[[0,0.5],[1,0.5]];portConstraint=eastwest;whiteSpace=wrap;html=1;" vertex="1" parent="3uVxdQvslyw7Lf-tSdgO-24">
          <mxGeometry y="156" width="140" height="26" as="geometry" />
        </mxCell>
        <mxCell id="3uVxdQvslyw7Lf-tSdgO-34" value="" style="endArrow=diamondThin;endFill=0;endSize=24;html=1;rounded=0;exitX=1;exitY=0.5;exitDx=0;exitDy=0;entryX=0;entryY=0.5;entryDx=0;entryDy=0;" edge="1" parent="WIyWlLk6GJQsqaUBKTNV-1" source="3uVxdQvslyw7Lf-tSdgO-23" target="3uVxdQvslyw7Lf-tSdgO-25">
          <mxGeometry width="160" relative="1" as="geometry">
            <mxPoint x="330" y="340" as="sourcePoint" />
            <mxPoint x="420" y="330" as="targetPoint" />
          </mxGeometry>
        </mxCell>
        <mxCell id="3uVxdQvslyw7Lf-tSdgO-37" value="" style="endArrow=diamondThin;endFill=1;endSize=24;html=1;rounded=0;entryX=0;entryY=0.5;entryDx=0;entryDy=0;exitX=0.463;exitY=-0.005;exitDx=0;exitDy=0;exitPerimeter=0;" edge="1" parent="WIyWlLk6GJQsqaUBKTNV-1" source="3uVxdQvslyw7Lf-tSdgO-24" target="3uVxdQvslyw7Lf-tSdgO-54">
          <mxGeometry width="160" relative="1" as="geometry">
            <mxPoint x="460" y="330" as="sourcePoint" />
            <mxPoint x="490" y="250" as="targetPoint" />
            <Array as="points">
              <mxPoint x="480" y="280" />
            </Array>
          </mxGeometry>
        </mxCell>
        <mxCell id="3uVxdQvslyw7Lf-tSdgO-41" value="Organization" style="swimlane;fontStyle=0;childLayout=stackLayout;horizontal=1;startSize=26;fillColor=none;horizontalStack=0;resizeParent=1;resizeParentMax=0;resizeLast=0;collapsible=1;marginBottom=0;whiteSpace=wrap;html=1;" vertex="1" parent="WIyWlLk6GJQsqaUBKTNV-1">
          <mxGeometry x="370" y="-222" width="140" height="156" as="geometry" />
        </mxCell>
        <mxCell id="3uVxdQvslyw7Lf-tSdgO-42" value="Name" style="text;strokeColor=none;fillColor=none;align=left;verticalAlign=top;spacingLeft=4;spacingRight=4;overflow=hidden;rotatable=0;points=[[0,0.5],[1,0.5]];portConstraint=eastwest;whiteSpace=wrap;html=1;" vertex="1" parent="3uVxdQvslyw7Lf-tSdgO-41">
          <mxGeometry y="26" width="140" height="26" as="geometry" />
        </mxCell>
        <mxCell id="3uVxdQvslyw7Lf-tSdgO-43" value="Owner" style="text;strokeColor=none;fillColor=none;align=left;verticalAlign=top;spacingLeft=4;spacingRight=4;overflow=hidden;rotatable=0;points=[[0,0.5],[1,0.5]];portConstraint=eastwest;whiteSpace=wrap;html=1;" vertex="1" parent="3uVxdQvslyw7Lf-tSdgO-41">
          <mxGeometry y="52" width="140" height="26" as="geometry" />
        </mxCell>
        <mxCell id="3uVxdQvslyw7Lf-tSdgO-44" value="Job listings" style="text;strokeColor=none;fillColor=none;align=left;verticalAlign=top;spacingLeft=4;spacingRight=4;overflow=hidden;rotatable=0;points=[[0,0.5],[1,0.5]];portConstraint=eastwest;whiteSpace=wrap;html=1;" vertex="1" parent="3uVxdQvslyw7Lf-tSdgO-41">
          <mxGeometry y="78" width="140" height="26" as="geometry" />
        </mxCell>
        <mxCell id="3uVxdQvslyw7Lf-tSdgO-55" value="Organization data" style="text;strokeColor=none;fillColor=none;align=left;verticalAlign=top;spacingLeft=4;spacingRight=4;overflow=hidden;rotatable=0;points=[[0,0.5],[1,0.5]];portConstraint=eastwest;whiteSpace=wrap;html=1;" vertex="1" parent="3uVxdQvslyw7Lf-tSdgO-41">
          <mxGeometry y="104" width="140" height="26" as="geometry" />
        </mxCell>
        <mxCell id="3uVxdQvslyw7Lf-tSdgO-62" value="Reputation&lt;div&gt;&lt;br&gt;&lt;/div&gt;" style="text;strokeColor=none;fillColor=none;align=left;verticalAlign=top;spacingLeft=4;spacingRight=4;overflow=hidden;rotatable=0;points=[[0,0.5],[1,0.5]];portConstraint=eastwest;whiteSpace=wrap;html=1;" vertex="1" parent="3uVxdQvslyw7Lf-tSdgO-41">
          <mxGeometry y="130" width="140" height="26" as="geometry" />
        </mxCell>
        <mxCell id="3uVxdQvslyw7Lf-tSdgO-46" value="" style="endArrow=diamondThin;endFill=1;endSize=24;html=1;rounded=0;entryX=0;entryY=0.5;entryDx=0;entryDy=0;exitX=0.533;exitY=1.096;exitDx=0;exitDy=0;exitPerimeter=0;" edge="1" parent="WIyWlLk6GJQsqaUBKTNV-1" source="3uVxdQvslyw7Lf-tSdgO-62" target="3uVxdQvslyw7Lf-tSdgO-45">
          <mxGeometry width="160" relative="1" as="geometry">
            <mxPoint x="330" y="150" as="sourcePoint" />
            <mxPoint x="120" y="20" as="targetPoint" />
            <Array as="points">
              <mxPoint x="445" y="-40" />
              <mxPoint x="80" y="-40" />
              <mxPoint x="80" y="247" />
            </Array>
          </mxGeometry>
        </mxCell>
        <mxCell id="3uVxdQvslyw7Lf-tSdgO-47" value="Job listing" style="swimlane;fontStyle=0;childLayout=stackLayout;horizontal=1;startSize=26;fillColor=none;horizontalStack=0;resizeParent=1;resizeParentMax=0;resizeLast=0;collapsible=1;marginBottom=0;whiteSpace=wrap;html=1;" vertex="1" parent="WIyWlLk6GJQsqaUBKTNV-1">
          <mxGeometry x="120" y="-240" width="140" height="174" as="geometry" />
        </mxCell>
        <mxCell id="3uVxdQvslyw7Lf-tSdgO-48" value="By Organization" style="text;strokeColor=none;fillColor=none;align=left;verticalAlign=top;spacingLeft=4;spacingRight=4;overflow=hidden;rotatable=0;points=[[0,0.5],[1,0.5]];portConstraint=eastwest;whiteSpace=wrap;html=1;" vertex="1" parent="3uVxdQvslyw7Lf-tSdgO-47">
          <mxGeometry y="26" width="140" height="26" as="geometry" />
        </mxCell>
        <mxCell id="3uVxdQvslyw7Lf-tSdgO-49" value="In location" style="text;strokeColor=none;fillColor=none;align=left;verticalAlign=top;spacingLeft=4;spacingRight=4;overflow=hidden;rotatable=0;points=[[0,0.5],[1,0.5]];portConstraint=eastwest;whiteSpace=wrap;html=1;" vertex="1" parent="3uVxdQvslyw7Lf-tSdgO-47">
          <mxGeometry y="52" width="140" height="26" as="geometry" />
        </mxCell>
        <mxCell id="3uVxdQvslyw7Lf-tSdgO-52" value="Stats, is remote, language, etc.." style="text;strokeColor=none;fillColor=none;align=left;verticalAlign=top;spacingLeft=4;spacingRight=4;overflow=hidden;rotatable=0;points=[[0,0.5],[1,0.5]];portConstraint=eastwest;whiteSpace=wrap;html=1;" vertex="1" parent="3uVxdQvslyw7Lf-tSdgO-47">
          <mxGeometry y="78" width="140" height="44" as="geometry" />
        </mxCell>
        <mxCell id="3uVxdQvslyw7Lf-tSdgO-50" value="Salary" style="text;strokeColor=none;fillColor=none;align=left;verticalAlign=top;spacingLeft=4;spacingRight=4;overflow=hidden;rotatable=0;points=[[0,0.5],[1,0.5]];portConstraint=eastwest;whiteSpace=wrap;html=1;" vertex="1" parent="3uVxdQvslyw7Lf-tSdgO-47">
          <mxGeometry y="122" width="140" height="26" as="geometry" />
        </mxCell>
        <mxCell id="3uVxdQvslyw7Lf-tSdgO-51" value="Description" style="text;strokeColor=none;fillColor=none;align=left;verticalAlign=top;spacingLeft=4;spacingRight=4;overflow=hidden;rotatable=0;points=[[0,0.5],[1,0.5]];portConstraint=eastwest;whiteSpace=wrap;html=1;" vertex="1" parent="3uVxdQvslyw7Lf-tSdgO-47">
          <mxGeometry y="148" width="140" height="26" as="geometry" />
        </mxCell>
        <mxCell id="3uVxdQvslyw7Lf-tSdgO-53" value="" style="endArrow=diamondThin;endFill=1;endSize=24;html=1;rounded=0;exitX=0.021;exitY=0.301;exitDx=0;exitDy=0;entryX=1;entryY=0.5;entryDx=0;entryDy=0;exitPerimeter=0;" edge="1" parent="WIyWlLk6GJQsqaUBKTNV-1" source="3uVxdQvslyw7Lf-tSdgO-55" target="3uVxdQvslyw7Lf-tSdgO-48">
          <mxGeometry width="160" relative="1" as="geometry">
            <mxPoint x="330" y="-20" as="sourcePoint" />
            <mxPoint x="490" y="-20" as="targetPoint" />
            <Array as="points">
              <mxPoint x="340" y="-110" />
              <mxPoint x="340" y="-200" />
            </Array>
          </mxGeometry>
        </mxCell>
        <mxCell id="3uVxdQvslyw7Lf-tSdgO-56" value="" style="endArrow=diamondThin;endFill=1;endSize=24;html=1;rounded=0;exitX=1;exitY=0;exitDx=0;exitDy=0;entryX=0.25;entryY=0;entryDx=0;entryDy=0;" edge="1" parent="WIyWlLk6GJQsqaUBKTNV-1" source="3uVxdQvslyw7Lf-tSdgO-47" target="3uVxdQvslyw7Lf-tSdgO-16">
          <mxGeometry width="160" relative="1" as="geometry">
            <mxPoint x="330" y="-100" as="sourcePoint" />
            <mxPoint x="540" y="-40" as="targetPoint" />
            <Array as="points">
              <mxPoint x="550" y="-240" />
            </Array>
          </mxGeometry>
        </mxCell>
        <mxCell id="3uVxdQvslyw7Lf-tSdgO-58" value="&lt;h1 style=&quot;margin-top: 0px;&quot;&gt;Private data:&lt;/h1&gt;" style="text;html=1;whiteSpace=wrap;overflow=hidden;rounded=0;" vertex="1" parent="WIyWlLk6GJQsqaUBKTNV-1">
          <mxGeometry x="30" y="640" width="150" height="40" as="geometry" />
        </mxCell>
        <mxCell id="3uVxdQvslyw7Lf-tSdgO-59" value="&lt;h1 style=&quot;margin-top: 0px;&quot;&gt;Public:&lt;/h1&gt;" style="text;html=1;whiteSpace=wrap;overflow=hidden;rounded=0;" vertex="1" parent="WIyWlLk6GJQsqaUBKTNV-1">
          <mxGeometry x="100" y="60" width="80" height="40" as="geometry" />
        </mxCell>
        <mxCell id="3uVxdQvslyw7Lf-tSdgO-60" value="&lt;h1 style=&quot;margin-top: 0px;&quot;&gt;Reputation&lt;/h1&gt;&lt;p&gt;+ If you engage well in a message / thread, people with good rep can upvote you&lt;/p&gt;&lt;p&gt;- If you are not helpful or trolling or being mean&lt;/p&gt;&lt;p&gt;+ If your description is correct, be it dating, job desc.&lt;/p&gt;&lt;p&gt;- If you lie about yourself&lt;/p&gt;&lt;p&gt;+ If you are administrating a big group&lt;/p&gt;&lt;p&gt;- If a group member gets banned/ reported / a group admin gets these.&lt;/p&gt;&lt;p&gt;+ If your organization offers fair jobs and good environment&lt;/p&gt;&lt;p&gt;- If you list unmatchable job requirements&lt;/p&gt;&lt;p&gt;+ For old accounts with ENOUGH engagements automatically.&lt;/p&gt;&lt;p&gt;- For getting blocked by people&lt;/p&gt;&lt;p&gt;+ For getting friended by people&lt;/p&gt;" style="text;html=1;whiteSpace=wrap;overflow=hidden;rounded=0;strokeColor=default;" vertex="1" parent="WIyWlLk6GJQsqaUBKTNV-1">
          <mxGeometry x="-190" y="130" width="180" height="530" as="geometry" />
        </mxCell>
        <mxCell id="3uVxdQvslyw7Lf-tSdgO-61" value="" style="endArrow=block;dashed=1;endFill=0;endSize=12;html=1;rounded=0;exitX=0;exitY=0.5;exitDx=0;exitDy=0;entryX=0.994;entryY=0.283;entryDx=0;entryDy=0;entryPerimeter=0;" edge="1" parent="WIyWlLk6GJQsqaUBKTNV-1" source="3uVxdQvslyw7Lf-tSdgO-57" target="3uVxdQvslyw7Lf-tSdgO-60">
          <mxGeometry width="160" relative="1" as="geometry">
            <mxPoint x="330" y="260" as="sourcePoint" />
            <mxPoint x="490" y="260" as="targetPoint" />
          </mxGeometry>
        </mxCell>
      </root>
    </mxGraphModel>
  </diagram>
</mxfile>
